<svg width="122" height="15" viewBox="0 0 122 15" fill="none" xmlns="http://www.w3.org/2000/svg">
<path d="M6.17714 6.91982C6.17714 7.43913 6.08514 7.876 5.90114 8.23045C5.71714 8.57666 5.45867 8.86104 5.12571 9.0836C4.80152 9.29792 4.416 9.45453 3.96914 9.55345C3.52229 9.64412 3.03162 9.68946 2.49714 9.68946C2.28686 9.68946 2.05905 9.68534 1.81371 9.67709C1.56838 9.66061 1.3581 9.64412 1.18286 9.62764V13.102C1.18286 13.168 1.16095 13.2257 1.11714 13.2751C1.07333 13.3246 1.01638 13.3493 0.946286 13.3493H0.236571C0.166476 13.3493 0.109524 13.3246 0.0657143 13.2751C0.0219048 13.2257 0 13.168 0 13.102V4.48403C0 4.30268 0.105143 4.19964 0.315429 4.17491C0.595809 4.14194 0.933143 4.11721 1.32743 4.10073C1.72171 4.08424 2.11162 4.076 2.49714 4.076C3.03162 4.076 3.52229 4.12546 3.96914 4.22437C4.416 4.31504 4.80152 4.46754 5.12571 4.68186C5.45867 4.88793 5.71714 5.16407 5.90114 5.51027C6.08514 5.84824 6.17714 6.26451 6.17714 6.75908V6.91982ZM4.98114 6.75908C4.98114 6.13262 4.77962 5.6875 4.37657 5.42372C3.97352 5.15995 3.34705 5.02806 2.49714 5.02806C2.29562 5.02806 2.06343 5.03218 1.80057 5.04042C1.54648 5.04867 1.34057 5.06103 1.18286 5.07752V8.7003C1.26171 8.7003 1.3581 8.70442 1.472 8.71267C1.5859 8.72091 1.70419 8.72915 1.82686 8.73739C1.94952 8.73739 2.06781 8.74152 2.18171 8.74976C2.30438 8.74976 2.40952 8.74976 2.49714 8.74976C3.39962 8.74976 4.03924 8.60551 4.416 8.317C4.79276 8.0285 4.98114 7.56277 4.98114 6.91982V6.75908Z" fill="#00A0D7"/>
<path d="M13.4364 13.102C13.4364 13.168 13.4101 13.2257 13.3576 13.2751C13.305 13.3246 13.2437 13.3493 13.1736 13.3493H12.569C12.4989 13.3493 12.4376 13.3246 12.385 13.2751C12.3324 13.2257 12.3061 13.168 12.3061 13.102V12.83C11.9907 13.0031 11.6665 13.1474 11.3336 13.2628C11.0006 13.3782 10.6501 13.4359 10.2821 13.4359C10.0017 13.4359 9.73013 13.407 9.46727 13.3493C9.21318 13.2834 8.98537 13.1721 8.78384 13.0155C8.59108 12.8589 8.43337 12.6528 8.3107 12.3973C8.1968 12.1417 8.13984 11.8203 8.13984 11.4328V11.2845C8.13984 10.9548 8.19241 10.6662 8.29756 10.419C8.41146 10.1634 8.59108 9.95323 8.83641 9.78837C9.09051 9.61527 9.41908 9.48751 9.82213 9.40508C10.2252 9.32265 10.7202 9.28143 11.3073 9.28143H12.2798V8.78685C12.2798 8.26755 12.1747 7.90486 11.9644 7.69878C11.7541 7.49271 11.3905 7.38967 10.8736 7.38967C10.4442 7.38967 10.0675 7.40203 9.74327 7.42676C9.41908 7.44325 9.12556 7.46386 8.8627 7.48859H8.79699C8.73565 7.48859 8.6787 7.47622 8.62613 7.45149C8.58232 7.42676 8.56041 7.37318 8.56041 7.29075V6.858C8.56041 6.72611 8.65241 6.6478 8.83641 6.62307C9.10803 6.58186 9.40156 6.54477 9.71699 6.51179C10.0412 6.47882 10.4267 6.46234 10.8736 6.46234C11.7848 6.46234 12.4376 6.66841 12.8318 7.08056C13.2349 7.49271 13.4364 8.06147 13.4364 8.78685V13.102ZM12.2798 10.0604H11.3073C10.913 10.0604 10.5844 10.0851 10.3216 10.1346C10.0587 10.1758 9.8528 10.2459 9.70384 10.3448C9.55489 10.4354 9.44975 10.5591 9.38841 10.7157C9.32708 10.8641 9.29641 11.0495 9.29641 11.2721V11.4205C9.29641 11.8656 9.40156 12.1665 9.61184 12.3231C9.82213 12.4715 10.12 12.5456 10.5056 12.5456C10.8122 12.5456 11.1057 12.5044 11.3861 12.422C11.6665 12.3396 11.9644 12.2159 12.2798 12.0511V10.0604Z" fill="#00A0D7"/>
<path d="M17.5574 13.102C17.5574 13.168 17.5355 13.2257 17.4917 13.2751C17.4479 13.3246 17.3909 13.3493 17.3208 13.3493H16.6374C16.5673 13.3493 16.5104 13.3246 16.4666 13.2751C16.4228 13.2257 16.4008 13.168 16.4008 13.102V4.28619C16.4008 4.22025 16.4228 4.16667 16.4666 4.12546C16.5104 4.076 16.5673 4.05127 16.6374 4.05127H17.3208C17.3909 4.05127 17.4479 4.076 17.4917 4.12546C17.5355 4.16667 17.5574 4.22025 17.5574 4.28619V13.102Z" fill="#00A0D7"/>
<path d="M24.3673 13.1639C24.3673 13.2793 24.2884 13.3493 24.1307 13.3741C23.9993 13.3905 23.8547 13.4029 23.697 13.4112C23.5393 13.4276 23.3991 13.4359 23.2764 13.4359C22.9697 13.4359 22.7025 13.4112 22.4747 13.3617C22.2556 13.3205 22.0716 13.2381 21.9227 13.1144C21.7825 12.9908 21.673 12.8218 21.5941 12.6075C21.524 12.3932 21.489 12.117 21.489 11.779V7.46386L20.2141 7.32785C20.0476 7.31136 19.9644 7.23718 19.9644 7.10529V6.77145C19.9644 6.62307 20.0476 6.54889 20.2141 6.54889H21.489V5.33717C21.489 5.19704 21.5678 5.11461 21.7256 5.08988L22.409 4.99097H22.4484C22.501 4.99097 22.5448 5.01157 22.5798 5.05279C22.6236 5.08576 22.6456 5.13522 22.6456 5.20116V6.54889H24.065C24.1351 6.54889 24.1964 6.57362 24.249 6.62307C24.3016 6.67253 24.3278 6.73023 24.3278 6.79618V7.21657C24.3278 7.28251 24.3016 7.34021 24.249 7.38967C24.1964 7.43913 24.1351 7.46386 24.065 7.46386H22.6456V11.779C22.6456 12.117 22.6981 12.3313 22.8033 12.422C22.9084 12.5127 23.0924 12.558 23.3553 12.558H24.0913C24.2753 12.558 24.3673 12.6157 24.3673 12.7311V13.1639Z" fill="#00A0D7"/>
<path d="M32.2105 10.0233C32.2105 10.2046 32.1272 10.2953 31.9608 10.2953H27.5579V10.4684C27.5579 11.202 27.7112 11.7213 28.0179 12.0263C28.3246 12.3313 28.7802 12.4838 29.3848 12.4838C29.7703 12.4838 30.1777 12.4715 30.607 12.4467C31.0451 12.422 31.4175 12.389 31.7242 12.3478H31.7899C31.8425 12.3478 31.8907 12.3602 31.9345 12.3849C31.9783 12.4096 32.0002 12.455 32.0002 12.5209V12.9413C32.0002 13.0237 31.9827 13.0897 31.9476 13.1391C31.9126 13.1804 31.8425 13.2092 31.7373 13.2257C31.3606 13.2916 30.9838 13.3411 30.607 13.3741C30.239 13.4153 29.8316 13.4359 29.3848 13.4359C29.008 13.4359 28.64 13.3905 28.2808 13.2999C27.9215 13.201 27.6017 13.0402 27.3213 12.8177C27.0497 12.5869 26.8263 12.2819 26.651 11.9027C26.4846 11.5235 26.4013 11.0454 26.4013 10.4684V9.35562C26.4013 8.46538 26.651 7.7606 27.1505 7.2413C27.6499 6.72199 28.3728 6.46234 29.319 6.46234C29.8009 6.46234 30.2215 6.5324 30.5808 6.67253C30.94 6.80442 31.2379 6.99813 31.4745 7.25366C31.7198 7.50095 31.9038 7.80594 32.0265 8.16863C32.1491 8.52308 32.2105 8.91874 32.2105 9.35562V10.0233ZM31.0408 9.35562C31.0408 8.65497 30.8962 8.15627 30.607 7.85952C30.3267 7.56277 29.8973 7.4144 29.319 7.4144C28.7495 7.4144 28.3114 7.57102 28.0048 7.88425C27.7069 8.19748 27.5579 8.68794 27.5579 9.35562V9.4669H31.0408V9.35562Z" fill="#00A0D7"/>
<path d="M36.1263 13.102C36.1263 13.168 36.1044 13.2257 36.0606 13.2751C36.0168 13.3246 35.9599 13.3493 35.8898 13.3493H35.2063C35.1362 13.3493 35.0793 13.3246 35.0355 13.2751C34.9917 13.2257 34.9698 13.168 34.9698 13.102V4.28619C34.9698 4.22025 34.9917 4.16667 35.0355 4.12546C35.0793 4.076 35.1362 4.05127 35.2063 4.05127H35.8898C35.9599 4.05127 36.0168 4.076 36.0606 4.12546C36.1044 4.16667 36.1263 4.22025 36.1263 4.28619V13.102Z" fill="#00A0D7"/>
<path d="M41.9505 9.97384C41.9505 10.114 41.8672 10.184 41.7007 10.184H39.0853C38.9188 10.184 38.8356 10.114 38.8356 9.97384V9.49163C38.8356 9.42568 38.8575 9.3721 38.9013 9.33089C38.9539 9.28967 39.0152 9.26907 39.0853 9.26907H41.7007C41.8672 9.26907 41.9505 9.34325 41.9505 9.49163V9.97384Z" fill="#00A0D7"/>
<path d="M51.3083 9.59054C51.3083 10.25 51.2119 10.8229 51.0191 11.3092C50.8351 11.7955 50.5679 12.1953 50.2174 12.5086C49.8757 12.8218 49.4595 13.0567 48.9688 13.2133C48.4782 13.3617 47.9306 13.4359 47.326 13.4359C47.0719 13.4359 46.8222 13.4318 46.5768 13.4235C46.3403 13.4153 46.1125 13.4029 45.8934 13.3864C45.6831 13.3782 45.4948 13.3658 45.3283 13.3493C45.1618 13.3411 45.0304 13.3287 44.934 13.3122C44.75 13.2875 44.658 13.1845 44.658 13.0031V4.50875C44.658 4.32741 44.75 4.22437 44.934 4.19964C45.0304 4.18316 45.1618 4.17079 45.3283 4.16255C45.4948 4.14606 45.6831 4.1337 45.8934 4.12546C46.1125 4.10897 46.3403 4.09661 46.5768 4.08836C46.8222 4.08012 47.0719 4.076 47.326 4.076C47.9306 4.076 48.4782 4.15018 48.9688 4.29856C49.4595 4.44693 49.8757 4.68186 50.2174 5.00333C50.5679 5.31656 50.8351 5.71635 51.0191 6.20268C51.2119 6.68078 51.3083 7.25366 51.3083 7.92134V9.59054ZM50.1123 7.92134C50.1123 7.36082 50.0378 6.89509 49.8888 6.52416C49.7487 6.15323 49.5515 5.8606 49.2974 5.64628C49.0521 5.42372 48.7586 5.26711 48.4168 5.17643C48.0839 5.08576 47.7203 5.04042 47.326 5.04042C47.0193 5.04042 46.7521 5.04455 46.5243 5.05279C46.3052 5.05279 46.0862 5.06103 45.8671 5.07752V12.4467C46.0774 12.4632 46.2965 12.4715 46.5243 12.4715C46.7521 12.4715 47.0193 12.4715 47.326 12.4715C47.7203 12.4715 48.0839 12.4261 48.4168 12.3354C48.7586 12.2448 49.0521 12.0882 49.2974 11.8656C49.5515 11.643 49.7487 11.3504 49.8888 10.9877C50.0378 10.6168 50.1123 10.1511 50.1123 9.59054V7.92134Z" fill="#00A0D7"/>
<path d="M59.8068 13.0279C59.8068 13.102 59.7805 13.1597 59.7279 13.201C59.6753 13.2339 59.614 13.2587 59.5439 13.2751C59.4037 13.2999 59.2635 13.3246 59.1233 13.3493C58.9832 13.3658 58.8298 13.3782 58.6633 13.3864C58.4969 13.4029 58.3085 13.4153 58.0982 13.4235C57.8879 13.4318 57.6426 13.4359 57.3622 13.4359C56.9592 13.4359 56.5517 13.3782 56.1399 13.2628C55.7281 13.1474 55.3557 12.9454 55.0228 12.6569C54.6898 12.3602 54.4182 11.9686 54.2079 11.4823C53.9976 10.9877 53.8925 10.3654 53.8925 9.61527V7.89661C53.8925 7.13826 53.9976 6.51592 54.2079 6.02958C54.4182 5.535 54.6898 5.14346 55.0228 4.85496C55.3557 4.56645 55.7281 4.3645 56.1399 4.2491C56.5517 4.1337 56.9592 4.076 57.3622 4.076C57.7828 4.076 58.1814 4.10073 58.5582 4.15019C58.9437 4.1914 59.2811 4.23261 59.5702 4.27383C59.7104 4.29032 59.7805 4.34389 59.7805 4.43457V5.06515C59.7805 5.10637 59.7717 5.13934 59.7542 5.16407C59.7367 5.1888 59.6929 5.20116 59.6228 5.20116H59.5833C59.4607 5.19292 59.3117 5.18468 59.1365 5.17643C58.97 5.15995 58.786 5.14758 58.5845 5.13934C58.3917 5.12286 58.1902 5.11049 57.9799 5.10225C57.7696 5.094 57.5681 5.08988 57.3753 5.08988C57.0512 5.08988 56.7489 5.13934 56.4685 5.23826C56.1969 5.32893 55.9559 5.48555 55.7456 5.70811C55.5441 5.92242 55.382 6.21093 55.2593 6.57362C55.1454 6.92806 55.0885 7.36906 55.0885 7.89661V9.61527C55.0885 10.1346 55.1454 10.5756 55.2593 10.9383C55.382 11.2927 55.5441 11.5812 55.7456 11.8038C55.9559 12.0181 56.1969 12.1747 56.4685 12.2736C56.7489 12.3725 57.0512 12.422 57.3753 12.422C57.5593 12.422 57.7521 12.4179 57.9536 12.4096C58.1639 12.4014 58.3654 12.3931 58.5582 12.3849C58.7597 12.3767 58.9437 12.3684 59.1102 12.3602C59.2767 12.3437 59.4212 12.3313 59.5439 12.3231H59.5965C59.7367 12.3231 59.8068 12.389 59.8068 12.5209V13.0279Z" fill="#00A0D7"/>
<path d="M69.2555 13.1762C69.2555 13.2174 69.2379 13.2587 69.2029 13.2999C69.1678 13.3328 69.1153 13.3493 69.0452 13.3493H68.2172C68.1471 13.3493 68.0945 13.337 68.0595 13.3122C68.0244 13.2793 67.985 13.2298 67.9412 13.1639L65.536 9.56581L63.1835 13.1639C63.0958 13.2875 63.0038 13.3493 62.9075 13.3493H62.132C62.0619 13.3493 62.0094 13.3328 61.9743 13.2999C61.9393 13.2587 61.9218 13.2133 61.9218 13.1639C61.9218 13.1227 61.9349 13.0814 61.9612 13.0402L64.8789 8.67557L61.9875 4.4593C61.9612 4.42632 61.948 4.38511 61.948 4.33565C61.948 4.22025 62.0138 4.16255 62.1452 4.16255H62.9995C63.0696 4.16255 63.1177 4.17491 63.144 4.19964C63.1791 4.21613 63.2098 4.24498 63.236 4.28619L65.6017 7.81006L67.8886 4.28619C67.9324 4.22849 67.9718 4.19552 68.0069 4.18728C68.0419 4.17079 68.0858 4.16255 68.1383 4.16255H68.9137C68.9838 4.16255 69.0364 4.18316 69.0715 4.22437C69.1065 4.25734 69.124 4.29856 69.124 4.34802C69.124 4.38923 69.1109 4.42632 69.0846 4.4593L66.2589 8.7003L69.216 13.0402C69.2423 13.0814 69.2555 13.1268 69.2555 13.1762Z" fill="#00A0D7"/>
<path d="M94.973 6.28923C94.973 6.77557 94.8415 7.20008 94.5787 7.56277C94.3158 7.91722 93.8777 8.28815 93.2644 8.67557L92.0027 9.47926C91.6347 9.71006 91.3324 9.9285 91.0958 10.1346C90.8592 10.3324 90.6709 10.5344 90.5307 10.7404C90.3992 10.9465 90.3029 11.1608 90.2415 11.3834C90.189 11.5977 90.1627 11.8409 90.1627 12.1129V12.3725H94.5918C94.6619 12.3725 94.7232 12.3932 94.7758 12.4344C94.8284 12.4673 94.8547 12.5168 94.8547 12.5827V13.1268C94.8547 13.1927 94.8284 13.2463 94.7758 13.2875C94.7232 13.3287 94.6619 13.3493 94.5918 13.3493H89.3741C89.304 13.3493 89.2427 13.3287 89.1901 13.2875C89.1375 13.2381 89.1112 13.1804 89.1112 13.1144V12.1129C89.1112 11.4699 89.2646 10.8806 89.5712 10.3448C89.8867 9.80898 90.4036 9.3144 91.1221 8.86104L92.4495 8.02026C92.7211 7.84715 92.9446 7.69466 93.1198 7.56277C93.2951 7.43088 93.4309 7.30312 93.5272 7.17947C93.6324 7.04759 93.7025 6.9157 93.7375 6.78381C93.7813 6.64368 93.8032 6.47882 93.8032 6.28923C93.8032 5.84411 93.6499 5.52264 93.3432 5.32481C93.0453 5.11873 92.5415 5.0157 91.8318 5.0157C91.4901 5.0157 91.109 5.0363 90.6884 5.07752C90.2678 5.11049 89.8735 5.15171 89.5055 5.20116H89.453C89.3128 5.20116 89.2427 5.12698 89.2427 4.9786V4.54585C89.2427 4.4799 89.2646 4.43045 89.3084 4.39747C89.361 4.3645 89.4223 4.33977 89.4924 4.32329C89.8253 4.24086 90.1977 4.17904 90.6095 4.13782C91.0301 4.09661 91.4375 4.076 91.8318 4.076C92.9008 4.076 93.6893 4.25322 94.1975 4.60767C94.7145 4.96212 94.973 5.52264 94.973 6.28923Z" fill="#00A0D7"/>
<path d="M104.271 9.59054C104.271 10.2747 104.197 10.86 104.048 11.3463C103.899 11.8326 103.684 12.2324 103.404 12.5456C103.123 12.8506 102.786 13.0773 102.392 13.2257C101.997 13.3658 101.551 13.4359 101.051 13.4359C100.552 13.4359 100.1 13.3658 99.6974 13.2257C99.3031 13.0773 98.9658 12.8506 98.6854 12.5456C98.405 12.2324 98.1904 11.8326 98.0414 11.3463C97.8924 10.86 97.818 10.2747 97.818 9.59054V7.92134C97.818 7.23718 97.8924 6.65192 98.0414 6.16559C98.1904 5.67925 98.405 5.28359 98.6854 4.9786C98.9658 4.66537 99.3031 4.43869 99.6974 4.29856C100.1 4.15018 100.552 4.076 101.051 4.076C101.551 4.076 101.997 4.15018 102.392 4.29856C102.786 4.43869 103.123 4.66537 103.404 4.9786C103.684 5.28359 103.899 5.67925 104.048 6.16559C104.197 6.65192 104.271 7.23718 104.271 7.92134V9.59054ZM103.075 7.92134C103.075 7.40203 103.027 6.96104 102.931 6.59835C102.834 6.22741 102.698 5.92654 102.523 5.69574C102.348 5.46494 102.133 5.29596 101.879 5.1888C101.634 5.08164 101.358 5.02806 101.051 5.02806C100.744 5.02806 100.464 5.08164 100.21 5.1888C99.9646 5.29596 99.7543 5.46494 99.5791 5.69574C99.4039 5.92654 99.2681 6.22741 99.1717 6.59835C99.0753 6.96104 99.0271 7.40203 99.0271 7.92134V9.59054C99.0271 10.1098 99.0753 10.555 99.1717 10.9259C99.2681 11.2886 99.4039 11.5853 99.5791 11.8161C99.7543 12.0469 99.9646 12.2159 100.21 12.3231C100.464 12.4302 100.744 12.4838 101.051 12.4838C101.358 12.4838 101.634 12.4302 101.879 12.3231C102.133 12.2159 102.348 12.0469 102.523 11.8161C102.698 11.5853 102.834 11.2886 102.931 10.9259C103.027 10.555 103.075 10.1098 103.075 9.59054V7.92134Z" fill="#00A0D7"/>
<path d="M112.991 6.28923C112.991 6.77557 112.86 7.20008 112.597 7.56277C112.334 7.91722 111.896 8.28815 111.282 8.67557L110.021 9.47926C109.653 9.71006 109.35 9.9285 109.114 10.1346C108.877 10.3324 108.689 10.5344 108.549 10.7404C108.417 10.9465 108.321 11.1608 108.26 11.3834C108.207 11.5977 108.181 11.8409 108.181 12.1129V12.3725H112.61C112.68 12.3725 112.741 12.3932 112.794 12.4344C112.846 12.4673 112.873 12.5168 112.873 12.5827V13.1268C112.873 13.1927 112.846 13.2463 112.794 13.2875C112.741 13.3287 112.68 13.3493 112.61 13.3493H107.392C107.322 13.3493 107.261 13.3287 107.208 13.2875C107.156 13.2381 107.129 13.1804 107.129 13.1144V12.1129C107.129 11.4699 107.283 10.8806 107.589 10.3448C107.905 9.80898 108.422 9.3144 109.14 8.86104L110.468 8.02026C110.739 7.84715 110.963 7.69466 111.138 7.56277C111.313 7.43088 111.449 7.30312 111.545 7.17947C111.65 7.04759 111.721 6.9157 111.756 6.78381C111.799 6.64368 111.821 6.47882 111.821 6.28923C111.821 5.84411 111.668 5.52264 111.361 5.32481C111.063 5.11873 110.56 5.0157 109.85 5.0157C109.508 5.0157 109.127 5.0363 108.706 5.07752C108.286 5.11049 107.892 5.15171 107.524 5.20116H107.471C107.331 5.20116 107.261 5.12698 107.261 4.9786V4.54585C107.261 4.4799 107.283 4.43045 107.326 4.39747C107.379 4.3645 107.44 4.33977 107.51 4.32329C107.843 4.24086 108.216 4.17904 108.628 4.13782C109.048 4.09661 109.456 4.076 109.85 4.076C110.919 4.076 111.707 4.25322 112.216 4.60767C112.733 4.96212 112.991 5.52264 112.991 6.28923Z" fill="#00A0D7"/>
<path d="M122 6.28923C122 6.77557 121.869 7.20008 121.606 7.56277C121.343 7.91722 120.905 8.28815 120.291 8.67557L119.03 9.47926C118.662 9.71006 118.359 9.9285 118.123 10.1346C117.886 10.3324 117.698 10.5344 117.558 10.7404C117.426 10.9465 117.33 11.1608 117.269 11.3834C117.216 11.5977 117.19 11.8409 117.19 12.1129V12.3725H121.619C121.689 12.3725 121.75 12.3932 121.803 12.4344C121.855 12.4673 121.882 12.5168 121.882 12.5827V13.1268C121.882 13.1927 121.855 13.2463 121.803 13.2875C121.75 13.3287 121.689 13.3493 121.619 13.3493H116.401C116.331 13.3493 116.27 13.3287 116.217 13.2875C116.165 13.2381 116.138 13.1804 116.138 13.1144V12.1129C116.138 11.4699 116.292 10.8806 116.598 10.3448C116.914 9.80898 117.431 9.3144 118.149 8.86104L119.477 8.02026C119.748 7.84715 119.972 7.69466 120.147 7.56277C120.322 7.43088 120.458 7.30312 120.554 7.17947C120.659 7.04759 120.73 6.9157 120.765 6.78381C120.808 6.64368 120.83 6.47882 120.83 6.28923C120.83 5.84411 120.677 5.52264 120.37 5.32481C120.072 5.11873 119.569 5.0157 118.859 5.0157C118.517 5.0157 118.136 5.0363 117.715 5.07752C117.295 5.11049 116.901 5.15171 116.533 5.20116H116.48C116.34 5.20116 116.27 5.12698 116.27 4.9786V4.54585C116.27 4.4799 116.292 4.43045 116.335 4.39747C116.388 4.3645 116.449 4.33977 116.519 4.32329C116.852 4.24086 117.225 4.17904 117.637 4.13782C118.057 4.09661 118.465 4.076 118.859 4.076C119.928 4.076 120.716 4.25322 121.225 4.60767C121.742 4.96212 122 5.52264 122 6.28923Z" fill="#00A0D7"/>
<path d="M82.4197 4.24441C83.0142 5.01248 83.3307 5.91777 83.3291 6.8439C83.3313 8.13903 82.7126 9.37633 81.6222 10.2572C82.1783 9.58985 82.4769 8.78623 82.4755 7.96176C82.4785 5.80472 80.4728 4.05411 77.9953 4.05127C77.9948 4.05127 77.9945 4.05127 77.994 4.05127C75.7035 4.0534 73.7827 5.55778 73.5391 7.54064C73.5263 7.66387 73.5165 7.7871 73.5154 7.91271C73.5154 7.92906 73.5127 7.94494 73.5127 7.96105C73.5113 9.40548 74.262 10.7726 75.5541 11.6789C74.9594 10.9103 74.6425 10.0046 74.6442 9.07773C74.6425 7.78331 75.261 6.54696 76.3502 5.66609C75.7942 6.33344 75.4956 7.13705 75.4969 7.96129C75.4942 10.1186 77.5002 11.8692 79.978 11.8718C79.9782 11.8718 79.9782 11.8718 79.9785 11.8718C82.4559 11.8696 84.4622 10.119 84.4595 7.96224C84.4595 7.962 84.4595 7.96176 84.4595 7.96153H84.4614C84.4628 6.51734 83.7121 5.15017 82.4197 4.24441Z" fill="white"/>
<path d="M78.9868 0.923098C77.7171 0.921997 76.4714 1.26624 75.383 1.91864C74.9073 2.18081 74.4738 2.51293 74.0968 2.90372C72.722 4.22862 71.9468 6.05447 71.9487 7.96156C71.9446 11.8446 75.0955 14.9959 78.9865 15C80.2418 15.0006 81.4743 14.6635 82.5541 14.0243C83.0461 13.7577 83.4943 13.4171 83.882 13.0142C85.2535 11.6901 86.0273 9.86672 86.0257 7.96211C86.0298 4.07881 82.8789 0.927505 78.9879 0.923098C78.9876 0.923098 78.9871 0.923098 78.9868 0.923098ZM79.9926 12.5055C77.4806 12.503 75.4465 10.4687 75.449 7.96183C75.449 7.96156 75.449 7.96156 75.449 7.96128C75.4473 7.0032 75.7503 6.06934 76.3141 5.29411C75.2092 6.31775 74.5822 7.75474 74.5839 9.2592C74.5819 10.336 74.9031 11.3888 75.5064 12.2819C74.1964 11.2291 73.4353 9.64035 73.4367 7.96183C73.4367 7.94283 73.4392 7.92438 73.4395 7.90538C73.4408 7.75942 73.4511 7.61567 73.4635 7.47301C73.7107 5.16881 75.6579 3.42035 77.9801 3.41787C80.4919 3.42035 82.5259 5.45412 82.5237 7.96073C82.5237 7.96128 82.5237 7.96156 82.5237 7.96211C82.5254 8.9202 82.2227 9.85405 81.6589 10.6296C82.7646 9.60592 83.3919 8.16838 83.39 6.66336C83.3916 5.58713 83.0704 4.53514 82.468 3.64259C83.778 4.69514 84.5391 6.2836 84.5377 7.96211H84.5352C84.5382 10.4687 82.5047 12.503 79.9929 12.5061C79.9929 12.5055 79.9929 12.5055 79.9926 12.5055Z" fill="#00A0D7"/>
</svg>
