<svg width="74" height="49" viewBox="0 0 74 49" fill="none" xmlns="http://www.w3.org/2000/svg">
<path d="M0 0H49C62.531 0 73.5 10.969 73.5 24.5V24.5C73.5 38.031 62.531 49 49 49H0V0Z" fill="white"/>
<path d="M60.4032 10.3479C62.3777 13.2719 63.4292 16.7184 63.4237 20.2443C63.431 25.1749 61.376 29.8853 57.7543 33.2389C59.6013 30.6982 60.5931 27.6388 60.5886 24.5C60.5985 16.288 53.9364 9.62338 45.7075 9.61255C45.7057 9.61255 45.7048 9.61255 45.703 9.61255C38.0952 9.62067 31.7152 15.3479 30.9061 22.8968C30.8636 23.3659 30.831 23.8351 30.8274 24.3132C30.8274 24.3755 30.8184 24.4359 30.8184 24.4973C30.8138 29.9963 33.3073 35.2012 37.5989 38.6512C35.6235 35.7254 34.5712 32.2771 34.5766 28.7485C34.5712 23.8206 36.6252 19.1138 40.2433 15.7602C38.3963 18.3009 37.4045 21.3603 37.4091 24.4982C37.4 32.7111 44.063 39.3757 52.2928 39.3857C52.2937 39.3857 52.2937 39.3857 52.2946 39.3857C60.5235 39.3775 67.1874 32.7129 67.1783 24.5018C67.1783 24.5009 67.1783 24.5 67.1783 24.4991H67.1847C67.1892 19.001 64.6958 13.7961 60.4032 10.3479Z" fill="white"/>
<path d="M48.9984 1.44117C44.8387 1.43756 40.7578 2.56533 37.1921 4.70268C35.6335 5.56159 34.2132 6.64966 32.9782 7.9299C28.4741 12.2705 25.9346 18.2521 25.9409 24.5C25.9274 37.2212 36.2501 47.5453 48.9975 47.5588C53.1101 47.5606 57.1477 46.4563 60.6853 44.3623C62.2973 43.4889 63.7655 42.3729 65.0357 41.0529C69.529 36.7151 72.064 30.7415 72.0586 24.5018C72.0721 11.7797 61.7494 1.45561 49.002 1.44117C49.0011 1.44117 48.9993 1.44117 48.9984 1.44117ZM52.2937 39.3865C44.064 39.3784 37.4 32.7138 37.4082 24.5009C37.4082 24.5 37.4082 24.5 37.4082 24.4991C37.4028 21.3603 38.3954 18.3009 40.2424 15.7611C36.6225 19.1147 34.5685 23.8224 34.5739 28.7512C34.5676 32.2789 35.6199 35.7281 37.5962 38.6539C33.3046 35.2048 30.8112 29.9999 30.8157 24.5009C30.8157 24.4386 30.8238 24.3782 30.8247 24.3159C30.8292 23.8378 30.8627 23.3668 30.9034 22.8995C31.7134 15.3506 38.0926 9.62246 45.7003 9.61434C53.9292 9.62246 60.5931 16.2853 60.5859 24.4973C60.5859 24.4991 60.5859 24.5 60.5859 24.5018C60.5913 27.6406 59.5995 30.7 57.7525 33.2406C61.3751 29.8871 63.4301 25.1776 63.4238 20.2469C63.4292 16.7211 62.3768 13.2746 60.4033 10.3505C64.6949 13.7988 67.1883 19.0028 67.1838 24.5018H67.1757C67.1856 32.7138 60.5235 39.3784 52.2946 39.3883C52.2946 39.3865 52.2946 39.3865 52.2937 39.3865Z" fill="#00A0D7"/>
</svg>
